<?xml version="1.0" encoding="UTF-8"?>
<svg width="256px" height="256px" viewBox="0 0 256 256" version="1.1" xmlns="http://www.w3.org/2000/svg" xmlns:xlink="http://www.w3.org/1999/xlink">
    <title>PostChatCircle备份</title>
    <defs>
        <linearGradient x1="81.7060525%" y1="-2.29073388%" x2="17.8901485%" y2="100.393202%" id="linearGradient-1">
            <stop stop-color="#00B9FB" offset="0%"></stop>
            <stop stop-color="#1D5FFF" offset="100%"></stop>
        </linearGradient>
    </defs>
    <g id="PostChatCircle备份" stroke="none" stroke-width="1" fill="none" fill-rule="evenodd">
        <rect id="矩形" fill="url(#linearGradient-1)" x="0" y="0" width="256" height="256" rx="128"></rect>
        <g id="编组" transform="translate(54.9388, 67.2171)" fill-rule="nonzero">
            <path d="M98.8377681,50.1784043 C110.018137,50.1784043 119.081617,58.8478197 119.081617,69.5420854 C119.081617,69.5738191 119.081537,69.605535 119.081377,69.6372329 L119.154782,69.5341819 L118.68652,95.1762575 C117.583499,90.4041331 116.130377,87.2182349 114.327155,85.6185627 C113.613899,84.9858205 112.951093,84.4362232 112.338737,83.9697711 C108.757073,87.0394021 104.025284,88.9057665 98.8377681,88.9057665 C87.6573993,88.9057665 78.5939197,80.2363512 78.5939197,69.5420854 C78.5939197,58.8478197 87.6573993,50.1784043 98.8377681,50.1784043 Z" id="形状结合" fill="#FFF56C" transform="translate(98.8744, 72.6773) rotate(-270) translate(-98.8744, -72.6773)"></path>
            <path d="M48.43331,6.85758467 L52.08331,28.7380667 C52.128205,29.0064673 52.15923,29.2741385 52.17748,29.5399864 L93.82252,29.5399864 C93.84077,29.2737738 93.871795,29.0064673 93.91669,28.7380667 L97.56669,6.85758467 C98.312385,2.38776687 102.54383,-0.632104321 107.017635,0.112926092 C111.49144,0.857956504 114.514005,5.0856303 113.76831,9.55544811 L110.4344,29.5399864 L118.625,29.5399864 C133.743665,29.5399864 146,41.7853981 146,56.8905889 L146,93.3580589 C146,108.46325 133.743665,120.708661 118.625,120.708661 L27.375,120.708661 C12.256335,120.708661 0,108.46325 0,93.3580589 L0,56.8905889 C0,41.7853981 12.256335,29.5399864 27.375,29.5399864 L35.5656,29.5399864 L32.23169,9.55544811 C31.485995,5.0856303 34.50856,0.857956504 38.982365,0.112926092 C43.45617,-0.632104321 47.687615,2.38776687 48.43331,6.85758467 Z M118.625,45.9503479 L27.375,45.9503479 C21.327315,45.9503479 16.425,50.8482938 16.425,56.8905889 L16.425,93.3580589 C16.425,99.400354 21.327315,104.2983 27.375,104.2983 L118.625,104.2983 C124.672685,104.2983 129.575,99.400354 129.575,93.3580589 L129.575,56.8905889 C129.575,50.8482938 124.672685,45.9503479 118.625,45.9503479 Z M43.9825,59.6256491 C48.51799,59.6256491 52.195,63.2993821 52.195,67.8308299 L52.195,75.1243239 C52.195,79.6557717 48.51799,83.3295046 43.9825,83.3295046 C39.44701,83.3295046 35.77,79.6557717 35.77,75.1243239 L35.77,67.8308299 C35.77,63.2993821 39.44701,59.6256491 43.9825,59.6256491 Z" id="形状结合" fill="#FFFFFF"></path>
            <path d="M95.9185984,69.6495371 C95.9185984,66.2843189 98.6492799,63.556071 102.0175,63.556071 C105.38572,63.556071 108.116402,66.2843189 108.116402,69.6495371 L108.116402,75.0659514 C108.116402,78.4311696 105.38572,81.1594174 102.0175,81.1594174 C98.6492799,81.1594174 95.9185984,78.4311696 95.9185984,75.0659514 L95.9185984,69.6495371 Z" id="路径" fill="#1088FE"></path>
        </g>
    </g>
</svg>