<svg xmlns="http://www.w3.org/2000/svg" xmlns:xlink="http://www.w3.org/1999/xlink" width="30" height="30" viewBox="0 0 30 30" fill="none"><defs><rect id="path_0" x="0" y="0" width="30" height="30" /></defs><g opacity="1" transform="translate(0 0)  rotate(0 15 15)"><mask id="bg-mask" fill="white"><use xlink:href="#path_0"></use></mask><g mask="url(#bg-mask)" ><path id="分组 1" fill-rule="evenodd" style="fill:#FE630D" transform="translate(1.1278160332207605 0.937539137393511)  rotate(0 13.860638757344386 14.062473374441806)" opacity="1" d="M22.2231 18.9455C22.8331 17.9155 22.8631 16.6455 22.2831 15.6055C22.0331 15.1755 21.7131 14.7955 21.3231 14.4855C20.7331 14.0055 20.0731 13.6155 19.3631 13.3155C17.8931 12.7255 16.3631 12.2555 14.8131 11.9255C14.0331 11.7755 13.2731 11.5255 12.5531 11.1955C12.2231 11.0355 11.9331 10.7955 11.7231 10.4955C11.5931 10.2755 11.5731 10.0155 11.6631 9.78552C11.8231 9.50552 12.0831 9.28552 12.3831 9.16552C12.9531 8.96552 13.5631 8.87552 14.1631 8.90552C15.6831 8.94552 17.2031 9.15552 18.6731 9.53552C19.8831 9.82552 21.0631 10.1955 22.2231 10.6555L22.0631 7.70552C21.4531 7.48552 20.8331 7.29552 20.2031 7.12552C18.6931 6.73552 17.1631 6.42552 15.6131 6.21552C14.1231 5.99552 12.6131 5.93552 11.1031 6.02552C10.1531 6.09552 9.21314 6.29552 8.31314 6.63552C7.53314 6.92552 6.82314 7.39552 6.23314 7.98552C5.66314 8.56552 5.28314 9.31552 5.16314 10.1155C5.06314 10.6655 5.11314 11.2355 5.32314 11.7455C5.61314 12.3555 6.07314 12.8755 6.64314 13.2355C7.68314 13.8755 8.82314 14.3655 10.0131 14.6655C11.1331 14.9855 12.2531 15.2155 13.3931 15.4555C13.9231 15.5755 14.4431 15.7255 14.9531 15.9055C15.3831 16.0655 15.7931 16.2855 16.1631 16.5655C16.3431 16.6955 16.4731 16.8855 16.5431 17.1055C16.5631 17.2955 16.4931 17.4855 16.3431 17.6155C16.0831 17.8155 15.7831 17.9555 15.4631 18.0255C14.8731 18.1955 14.2531 18.2955 13.6431 18.3255C12.0131 18.4055 10.3931 18.2055 8.84314 17.7455C7.70314 17.4255 6.59314 17.0155 5.52314 16.5055C5.58314 17.5155 5.64314 18.5255 5.70314 19.5355C6.30314 19.8055 6.91314 20.0255 7.53314 20.2255C9.29314 20.8355 11.1131 21.2555 12.9531 21.4755C14.1831 21.5955 15.4131 21.5955 16.6431 21.4755C17.7931 21.3955 18.9131 21.1355 19.9831 20.7155C20.8931 20.3655 21.6731 19.7455 22.2231 18.9455Z M17.65 25.22C17.27 25.34 16.87 25.46 16.5 25.55C12.5 26.43 8.32 25.22 5.42 22.33C4.87 21.79 4.38 21.2 3.95 20.56C1.22 16.51 1.22 11.22 3.95 7.17C4.39 6.54 4.88 5.95 5.42 5.4C6.51 4.31 7.8 3.44 9.22 2.84C10.68 2.21 12.25 1.89 13.84 1.9C17.03 1.9 20.08 3.18 22.31 5.44C25.65 8.78 26.72 13.77 25.03 18.19C24.65 19.19 24.14 20.13 23.5 20.99C23.35 21.18 23.29 21.42 23.32 21.66C23.36 21.89 23.48 22.11 23.68 22.25C23.86 22.43 24.12 22.51 24.38 22.49C24.64 22.46 24.87 22.32 25.02 22.11C27.51 18.72 28.33 14.39 27.26 10.33C26.19 6.27 23.34 2.91 19.51 1.19C18.94 0.92 18.34 0.71 17.74 0.54C13.55 -0.66 9.04 0.17 5.56 2.78C2.07 5.39 0.02 9.49 0 13.84C-0.01 18.3 2.12 22.48 5.73 25.1C9.34 27.71 13.99 28.42 18.21 27.02C18.48 26.93 18.69 26.73 18.8 26.47C18.91 26.21 18.89 25.92 18.76 25.67C18.57 25.25 18.08 25.06 17.65 25.22Z M23.7334 23.7375L23.7634 23.7775C22.7234 24.8175 21.5334 25.6875 20.2134 26.3575C20.0034 26.4675 19.8334 26.6675 19.7634 26.9075C19.6934 27.1475 19.7134 27.4075 19.8334 27.6275C20.0734 28.0675 20.6234 28.2475 21.0734 28.0275C22.6534 27.2075 24.0834 26.1375 25.3034 24.8375C25.4834 24.6575 25.5834 24.4175 25.5734 24.1575C25.5534 23.9075 25.4334 23.6675 25.2334 23.5075L24.4834 22.8875C24.2634 23.1775 23.9934 23.4675 23.7334 23.7375Z " /></g></g></svg>